#!OML:ASF Y:\EmotionMaleHayes\Project 1\Capture day 1\Session 1\Male1.ASF
:FULLY-SPECIFIED
:DEGREES
852
root 5.221 16.8207 -3.79984 177.475 143.422 175.613
lowerback 7.81397 4.05134 6.80808
upperback 4.79203 5.8719 1.07913
thorax 1.19015 3.10639 -3.03357
lowerneck -19.7694 -0.790497 3.82286
upperneck 30.4122 -3.6214 4.18672
head 13.6664 -0.406204 0.408622
rclavicle -1.75924e-014 3.97569e-015
rhumerus -1.87542 3.39638 -75.2094
rradius 47.6748
rwrist -14.404
rhand -12.5081 -34.7405
rfingers 7.12502
rthumb 13.5673 -64.2784
lclavicle -1.75924e-014 3.97569e-015
lhumerus -51.5155 25.0556 51.2264
lradius 17.2513
lwrist -31.8862
lhand -11.537 -21.5054
lfingers 7.12502
lthumb 14.5032 7.96765
rfemur 16.7841 -2.95156 25.4853
rtibia 8.43579
rfoot -22.9221 -3.07852
rtoes 6.07609
lfemur -24.3122 13.4352 -17.3823
ltibia 28.2447
lfoot -13.7797 3.8956
ltoes -16.3741
853
root 5.29205 16.8098 -3.70811 177.455 143.767 175.494
lowerback 7.7083 4.16853 6.9294
upperback 4.75035 6.02691 1.07737
thorax 1.23479 3.18637 -3.1007
lowerneck -19.7205 -0.754136 3.76149
upperneck 30.5524 -3.58082 4.28915
head 13.7204 -0.37521 0.469197
rclavicle -7.5737e-014 1.43125e-014
rhumerus -1.37011 2.43693 -75.9773
rradius 46.9502
rwrist -16.0212
rhand -12.9335 -34.7869
rfingers 7.12502
rthumb 13.1573 -64.3518
lclavicle -7.5737e-014 1.43125e-014
lhumerus -51.9637 25.1236 50.6882
lradius 17.5568
lwrist -30.8261
lhand -11.299 -21.199
lfingers 7.12502
lthumb 14.7324 8.25747
rfemur 17.172 -3.05118 25.3946
rtibia 8.47013
rfoot -22.8923 -2.61764
rtoes 5.92344
lfemur -24.5547 13.1579 -17.629
ltibia 27.177
lfoot -12.6009 3.38149
ltoes -21.3799
854
root 5.35973 16.7988 -3.61565 177.482 144.068 175.399
lowerback 7.59253 4.21759 6.9643
upperback 4.69208 6.08575 1.09033
thorax 1.24641 3.21448 -3.10164
lowerneck -19.6255 -0.690004 3.66422
upperneck 30.6204 -3.47389 4.36676
head 13.732 -0.3279 0.536521
rclavicle -3.04141e-014 7.95139e-016
rhumerus -1.00677 1.7245 -76.7638
rradius 46.4745
rwrist -17.6248
rhand -13.0044 -34.9343
rfingers 7.12502
rthumb 13.089 -64.5036
lclavicle -3.04141e-014 7.95139e-016
lhumerus -52.6002 25.2929 50.0623
lradius 17.9999
lwrist -29.5466
lhand -10.8782 -20.8099
lfingers 7.12502
lthumb 15.1378 8.61644
rfemur 17.5012 -3.19593 25.3093
rtibia 8.50563
rfoot -22.7629 -2.40462
rtoes 4.1141
lfemur -24.8624 12.8644 -17.858
ltibia 26.3731
lfoot -11.7502 2.43582
ltoes -20.2713
855
root 5.43251 16.7885 -3.52188 177.53 144.369 175.386
lowerback 7.55694 4.34525 6.90884
upperback 4.63055 6.25012 1.07412
thorax 1.21456 3.29234 -3.0947
lowerneck -19.7811 -0.684655 3.81474
upperneck 30.7857 -3.49989 4.25199
head 13.8323 -0.328393 0.46262
rclavicle 4.69132e-014 1.15295e-014
rhumerus -0.776289 0.842483 -77.5265
rradius 46.0563
rwrist -19.2806
rhand -13.2763 -35.4206
rfingers 7.12502
rthumb 12.8268 -65.0065
lclavicle 4.69132e-014 1.15295e-014
lhumerus -52.9339 25.3753 49.487
lradius 18.1677
lwrist -28.5159
lhand -11.0113 -20.9469
lfingers 7.12502
lthumb 15.0096 8.4891
rfemur 17.8524 -3.11045 25.2653
rtibia 8.55532
rfoot -22.6414 -2.39282
rtoes 2.75055
lfemur -25.0637 12.6578 -18.1794
ltibia 25.6759
lfoot -10.8525 1.7277
ltoes -17.4157
856
root 5.51116 16.7783 -3.4262 177.464 144.775 175.237
lowerback 7.54452 4.55454 7.06706
upperback 4.60449 6.53653 1.01023
thorax 1.25146 3.4401 -3.25654
lowerneck -19.9484 -0.704029 3.9818
upperneck 30.8273 -3.60609 4.2642
head 13.8867 -0.347732 0.420819
rclavicle 2.8128e-014 2.70347e-014
rhumerus -0.539047 -0.327935 -78.2848
rradius 45.5843
rwrist -20.7695
rhand -13.389 -36.0003
rfingers 7.12502
rthumb 12.7182 -65.593
lclavicle 2.8128e-014 2.70347e-014
lhumerus -52.8314 25.3048 49.0951
lradius 18.1296
lwrist -27.6794
lhand -11.2098 -21.1958
lfingers 7.12502
lthumb 14.8184 8.25441
rfemur 18.1683 -2.84527 25.418
rtibia 8.74423
rfoot -22.605 -2.45124
rtoes 1.50417
lfemur -25.155 12.476 -18.2825
ltibia 24.9753
lfoot -9.62925 1.37495
ltoes -17.966
